<svg xmlns="http://www.w3.org/2000/svg" viewBox="0 0 80 80" fill="none">
  <rect width="80" height="80" rx="16" fill="#000000"/>
  <path d="M40 14C33.37 14 27.6 17.74 24.6 23.3C21.1 23.9 18.1 25.9 16.2 28.8C13.2 33.6 13.6 39.7 16.8 44.1C15.6 47.3 15.8 50.8 17.4 53.8C20.4 59.3 26.8 62 33.1 60.8C35.3 63.2 38.5 64.7 42 64.7C48.63 64.7 54.4 60.96 57.4 55.4C60.9 54.8 63.9 52.8 65.8 49.9C68.8 45.1 68.4 39 65.2 34.6C66.4 31.4 66.2 27.9 64.6 24.9C61.6 19.4 55.2 16.7 48.9 17.9C46.7 15.5 43.5 14 40 14Z" fill="white" opacity="0.95"/>
  <circle cx="40" cy="39.5" r="7" fill="black"/>
</svg>
